<svg width="441" height="442" viewBox="0 0 441 442" fill="none" xmlns="http://www.w3.org/2000/svg">
<rect y="0.666748" width="441" height="441" fill="#12101B"/>
<rect y="0.666748" width="441" height="441" fill="#A0D3F8"/>
<path d="M290 85.6667H305V205.667H290V85.6667Z" fill="#D6190E"/>
<rect x="266" y="205.667" width="32" height="33" fill="#D6190E"/>
<path d="M369 136.667H384V256.667H369V136.667Z" fill="#D6190E"/>
<rect x="346" y="256.667" width="31" height="29" fill="#D6190E"/>
<rect x="305.817" y="85.6667" width="53" height="13" transform="rotate(36.9648 305.817 85.6667)" fill="#D6190E"/>
<rect x="342.817" y="124.667" width="49.3636" height="13" transform="rotate(36.9648 342.817 124.667)" fill="#D6190E"/>
<rect x="300.817" y="124.667" width="53" height="13" transform="rotate(36.9648 300.817 124.667)" fill="#D6190E"/>
<rect x="337.817" y="163.667" width="49.3636" height="13" transform="rotate(36.9648 337.817 163.667)" fill="#D6190E"/>
<path d="M290 85.6667H305V205.667H290V85.6667Z" fill="#208A3F"/>
<rect x="266" y="205.667" width="32" height="33" fill="#208A3F"/>
<path d="M369 136.667H384V256.667H369V136.667Z" fill="#208A3F"/>
<rect x="346" y="256.667" width="31" height="29" fill="#208A3F"/>
<rect x="305.817" y="85.6667" width="53" height="13" transform="rotate(36.9648 305.817 85.6667)" fill="#208A3F"/>
<rect x="342.817" y="124.667" width="49.3636" height="13" transform="rotate(36.9648 342.817 124.667)" fill="#208A3F"/>
<rect x="300.817" y="124.667" width="53" height="13" transform="rotate(36.9648 300.817 124.667)" fill="#208A3F"/>
<rect x="337.817" y="163.667" width="49.3636" height="13" transform="rotate(36.9648 337.817 163.667)" fill="#208A3F"/>
<path d="M184.61 125.667H199.991V245.667H184.61V125.667Z" fill="#6A2E13"/>
<rect x="160" y="245.667" width="32.8136" height="33" fill="#6A2E13"/>
<path d="M265.619 176.667H281V296.667H265.619V176.667Z" fill="#6A2E13"/>
<rect x="242.034" y="296.667" width="31.7881" height="29" fill="#6A2E13"/>
<rect width="53.8641" height="13.1205" transform="matrix(0.806174 0.591678 -0.610951 0.791668 200.829 125.667)" fill="#6A2E13"/>
<rect width="50.1684" height="13.1205" transform="matrix(0.806174 0.591678 -0.610951 0.791668 238.77 164.667)" fill="#6A2E13"/>
<rect width="53.8641" height="13.1205" transform="matrix(0.806174 0.591678 -0.610951 0.791668 195.702 164.667)" fill="#6A2E13"/>
<rect width="50.1684" height="13.1205" transform="matrix(0.806174 0.591678 -0.610951 0.791668 233.643 203.667)" fill="#6A2E13"/>
<path d="M184.61 125.667H199.991V245.667H184.61V125.667Z" fill="#677A38"/>
<rect x="160" y="245.667" width="32.8136" height="33" fill="#677A38"/>
<path d="M265.619 176.667H281V296.667H265.619V176.667Z" fill="#677A38"/>
<rect x="242.034" y="296.667" width="31.7881" height="29" fill="#677A38"/>
<rect width="53.8641" height="13.1205" transform="matrix(0.806174 0.591678 -0.610951 0.791668 200.829 125.667)" fill="#677A38"/>
<rect width="50.1684" height="13.1205" transform="matrix(0.806174 0.591678 -0.610951 0.791668 238.77 164.667)" fill="#677A38"/>
<rect width="53.8641" height="13.1205" transform="matrix(0.806174 0.591678 -0.610951 0.791668 195.702 164.667)" fill="#677A38"/>
<rect width="50.1684" height="13.1205" transform="matrix(0.806174 0.591678 -0.610951 0.791668 233.643 203.667)" fill="#677A38"/>
<path d="M82 157.667H97V277.667H82V157.667Z" fill="#895F35"/>
<rect x="58" y="277.667" width="32" height="33" fill="#895F35"/>
<path d="M161 208.667H176V328.667H161V208.667Z" fill="#895F35"/>
<rect x="138" y="328.667" width="31" height="29" fill="#895F35"/>
<rect x="97.8171" y="157.667" width="53" height="13" transform="rotate(36.9648 97.8171 157.667)" fill="#895F35"/>
<rect x="134.817" y="196.667" width="49.3636" height="13" transform="rotate(36.9648 134.817 196.667)" fill="#895F35"/>
<rect x="92.8171" y="196.667" width="53" height="13" transform="rotate(36.9648 92.8171 196.667)" fill="#895F35"/>
<rect x="129.817" y="235.667" width="49.3636" height="13" transform="rotate(36.9648 129.817 235.667)" fill="#895F35"/>
<path d="M82 157.667H97V277.667H82V157.667Z" fill="#425819"/>
<rect x="58" y="277.667" width="32" height="33" fill="#425819"/>
<path d="M161 208.667H176V328.667H161V208.667Z" fill="#425819"/>
<rect x="138" y="328.667" width="31" height="29" fill="#425819"/>
<rect x="97.8171" y="157.667" width="53" height="13" transform="rotate(36.9648 97.8171 157.667)" fill="#425819"/>
<rect x="134.817" y="196.667" width="49.3636" height="13" transform="rotate(36.9648 134.817 196.667)" fill="#425819"/>
<rect x="92.8171" y="196.667" width="53" height="13" transform="rotate(36.9648 92.8171 196.667)" fill="#425819"/>
<rect x="129.817" y="235.667" width="49.3636" height="13" transform="rotate(36.9648 129.817 235.667)" fill="#425819"/>
</svg>
