<svg width="500" height="500" viewBox="0 0 500 500" fill="none" xmlns="http://www.w3.org/2000/svg">
<path d="M500 250C500 388.071 388.071 500 250 500C111.929 500 0 388.071 0 250C0 111.929 111.929 0 250 0C388.071 0 500 111.929 500 250Z" fill="#12101B"/>
<rect x="68" y="249.683" width="46.6655" height="39.5609" fill="white"/>
<rect x="114.666" y="249.683" width="46.6655" height="39.5609" fill="white"/>
<rect x="148.604" y="289.244" width="133.633" height="39.5609" fill="white"/>
<rect x="233.45" y="328.805" width="133.633" height="39.5609" fill="white"/>
<rect x="99.8175" y="190.341" width="46.6655" height="39.5609" fill="#00FFFF"/>
<rect x="146.483" y="190.341" width="46.6655" height="39.5609" fill="#00FFFF"/>
<rect x="180.421" y="229.902" width="133.633" height="39.5609" fill="#00FFFF"/>
<rect x="265.268" y="269.463" width="133.633" height="39.5609" fill="#00FFFF"/>
<rect x="133.756" y="131" width="46.6655" height="39.5609" fill="#FF00C1"/>
<rect x="180.421" y="131" width="46.6655" height="39.5609" fill="#FF00C1"/>
<rect x="214.36" y="170.561" width="133.633" height="39.5609" fill="#FF00C1"/>
<rect x="299.207" y="210.122" width="133.633" height="39.5609" fill="#FF00C1"/>
</svg>
